<svg width="145" height="24" viewBox="0 0 145 24" fill="none" xmlns="http://www.w3.org/2000/svg">
<path d="M10 6H16M10 14H16M10 10H22M10 18H22M3 10H5C5.55228 10 6 9.55228 6 9V7C6 6.44772 5.55228 6 5 6H3C2.44772 6 2 6.44772 2 7V9C2 9.55228 2.44772 10 3 10ZM3 18H5C5.55228 18 6 17.5523 6 17V15C6 14.4477 5.55228 14 5 14H3C2.44772 14 2 14.4477 2 15V17C2 17.5523 2.44772 18 3 18Z" stroke="white" stroke-width="1.5" stroke-linecap="round"/>
<path d="M39.54 16.59C39.6867 16.59 39.8167 16.6467 39.93 16.76L40.99 17.91C40.4033 18.6367 39.68 19.1933 38.82 19.58C37.9667 19.9667 36.94 20.16 35.74 20.16C34.6667 20.16 33.7 19.9767 32.84 19.61C31.9867 19.2433 31.2567 18.7333 30.65 18.08C30.0433 17.4267 29.5767 16.6467 29.25 15.74C28.93 14.8333 28.77 13.8433 28.77 12.77C28.77 11.6833 28.9433 10.69 29.29 9.79C29.6367 8.88333 30.1233 8.10333 30.75 7.45C31.3833 6.79667 32.1367 6.29 33.01 5.93C33.8833 5.56333 34.85 5.38 35.91 5.38C36.9633 5.38 37.8967 5.55333 38.71 5.9C39.53 6.24667 40.2267 6.7 40.8 7.26L39.9 8.51C39.8467 8.59 39.7767 8.66 39.69 8.72C39.61 8.78 39.4967 8.81 39.35 8.81C39.25 8.81 39.1467 8.78333 39.04 8.73C38.9333 8.67 38.8167 8.6 38.69 8.52C38.5633 8.43333 38.4167 8.34 38.25 8.24C38.0833 8.14 37.89 8.05 37.67 7.97C37.45 7.88333 37.1933 7.81333 36.9 7.76C36.6133 7.7 36.28 7.67 35.9 7.67C35.2533 7.67 34.66 7.78667 34.12 8.02C33.5867 8.24667 33.1267 8.58 32.74 9.02C32.3533 9.45333 32.0533 9.98667 31.84 10.62C31.6267 11.2467 31.52 11.9633 31.52 12.77C31.52 13.5833 31.6333 14.3067 31.86 14.94C32.0933 15.5733 32.4067 16.1067 32.8 16.54C33.1933 16.9733 33.6567 17.3067 34.19 17.54C34.7233 17.7667 35.2967 17.88 35.91 17.88C36.2767 17.88 36.6067 17.86 36.9 17.82C37.2 17.78 37.4733 17.7167 37.72 17.63C37.9733 17.5433 38.21 17.4333 38.43 17.3C38.6567 17.16 38.88 16.99 39.1 16.79C39.1667 16.73 39.2367 16.6833 39.31 16.65C39.3833 16.61 39.46 16.59 39.54 16.59ZM47.8627 15.62C47.1493 15.6533 46.5493 15.7167 46.0627 15.81C45.576 15.8967 45.186 16.01 44.8927 16.15C44.5993 16.29 44.3893 16.4533 44.2627 16.64C44.136 16.8267 44.0727 17.03 44.0727 17.25C44.0727 17.6833 44.1993 17.9933 44.4527 18.18C44.7127 18.3667 45.0493 18.46 45.4627 18.46C45.9693 18.46 46.406 18.37 46.7727 18.19C47.146 18.0033 47.5093 17.7233 47.8627 17.35V15.62ZM42.2027 11.17C43.3827 10.09 44.8027 9.55 46.4627 9.55C47.0627 9.55 47.5993 9.65 48.0727 9.85C48.546 10.0433 48.946 10.3167 49.2727 10.67C49.5993 11.0167 49.846 11.4333 50.0127 11.92C50.186 12.4067 50.2727 12.94 50.2727 13.52V20H49.1527C48.9193 20 48.7393 19.9667 48.6127 19.9C48.486 19.8267 48.386 19.6833 48.3127 19.47L48.0927 18.73C47.8327 18.9633 47.5793 19.17 47.3327 19.35C47.086 19.5233 46.8293 19.67 46.5627 19.79C46.296 19.91 46.0093 20 45.7027 20.06C45.4027 20.1267 45.0693 20.16 44.7027 20.16C44.2693 20.16 43.8693 20.1033 43.5027 19.99C43.136 19.87 42.8193 19.6933 42.5527 19.46C42.286 19.2267 42.0793 18.9367 41.9327 18.59C41.786 18.2433 41.7127 17.84 41.7127 17.38C41.7127 17.12 41.756 16.8633 41.8427 16.61C41.9293 16.35 42.0693 16.1033 42.2627 15.87C42.4627 15.6367 42.7193 15.4167 43.0327 15.21C43.346 15.0033 43.7293 14.8233 44.1827 14.67C44.6427 14.5167 45.176 14.3933 45.7827 14.3C46.3893 14.2 47.0827 14.14 47.8627 14.12V13.52C47.8627 12.8333 47.716 12.3267 47.4227 12C47.1293 11.6667 46.706 11.5 46.1527 11.5C45.7527 11.5 45.4193 11.5467 45.1527 11.64C44.8927 11.7333 44.6627 11.84 44.4627 11.96C44.2627 12.0733 44.0793 12.1767 43.9127 12.27C43.7527 12.3633 43.5727 12.41 43.3727 12.41C43.1993 12.41 43.0527 12.3667 42.9327 12.28C42.8127 12.1867 42.716 12.08 42.6427 11.96L42.2027 11.17ZM55.8822 20.16C54.9889 20.16 54.3022 19.91 53.8222 19.41C53.3489 18.9033 53.1122 18.2067 53.1122 17.32V11.59H52.0622C51.9289 11.59 51.8155 11.5467 51.7222 11.46C51.6289 11.3733 51.5822 11.2433 51.5822 11.07V10.09L53.2322 9.82L53.7522 7.02C53.7855 6.88667 53.8489 6.78333 53.9422 6.71C54.0355 6.63667 54.1555 6.6 54.3022 6.6H55.5822V9.83H58.3222V11.59H55.5822V17.15C55.5822 17.47 55.6589 17.72 55.8122 17.9C55.9722 18.08 56.1889 18.17 56.4622 18.17C56.6155 18.17 56.7422 18.1533 56.8422 18.12C56.9489 18.08 57.0389 18.04 57.1122 18C57.1922 17.96 57.2622 17.9233 57.3222 17.89C57.3822 17.85 57.4422 17.83 57.5022 17.83C57.5755 17.83 57.6355 17.85 57.6822 17.89C57.7289 17.9233 57.7789 17.9767 57.8322 18.05L58.5722 19.25C58.2122 19.55 57.7989 19.7767 57.3322 19.93C56.8655 20.0833 56.3822 20.16 55.8822 20.16ZM66.4355 13.69C66.4355 13.37 66.3888 13.07 66.2955 12.79C66.2088 12.5033 66.0755 12.2533 65.8955 12.04C65.7155 11.8267 65.4855 11.66 65.2055 11.54C64.9321 11.4133 64.6121 11.35 64.2455 11.35C63.5321 11.35 62.9688 11.5533 62.5555 11.96C62.1488 12.3667 61.8888 12.9433 61.7755 13.69H66.4355ZM61.7255 15.18C61.7655 15.7067 61.8588 16.1633 62.0055 16.55C62.1521 16.93 62.3455 17.2467 62.5855 17.5C62.8255 17.7467 63.1088 17.9333 63.4355 18.06C63.7688 18.18 64.1355 18.24 64.5355 18.24C64.9355 18.24 65.2788 18.1933 65.5655 18.1C65.8588 18.0067 66.1121 17.9033 66.3255 17.79C66.5455 17.6767 66.7355 17.5733 66.8955 17.48C67.0621 17.3867 67.2221 17.34 67.3755 17.34C67.5821 17.34 67.7355 17.4167 67.8355 17.57L68.5455 18.47C68.2721 18.79 67.9655 19.06 67.6255 19.28C67.2855 19.4933 66.9288 19.6667 66.5555 19.8C66.1888 19.9267 65.8121 20.0167 65.4255 20.07C65.0455 20.1233 64.6755 20.15 64.3155 20.15C63.6021 20.15 62.9388 20.0333 62.3255 19.8C61.7121 19.56 61.1788 19.21 60.7255 18.75C60.2721 18.2833 59.9155 17.71 59.6555 17.03C59.3955 16.3433 59.2655 15.55 59.2655 14.65C59.2655 13.95 59.3788 13.2933 59.6055 12.68C59.8321 12.06 60.1555 11.5233 60.5755 11.07C61.0021 10.61 61.5188 10.2467 62.1255 9.98C62.7388 9.71333 63.4288 9.58 64.1955 9.58C64.8421 9.58 65.4388 9.68333 65.9855 9.89C66.5321 10.0967 67.0021 10.4 67.3955 10.8C67.7888 11.1933 68.0955 11.68 68.3155 12.26C68.5421 12.8333 68.6555 13.49 68.6555 14.23C68.6555 14.6033 68.6155 14.8567 68.5355 14.99C68.4555 15.1167 68.3021 15.18 68.0755 15.18H61.7255ZM74.2591 14.62C74.5657 14.62 74.8324 14.58 75.0591 14.5C75.2857 14.4133 75.4724 14.2967 75.6191 14.15C75.7724 14.0033 75.8857 13.8267 75.9591 13.62C76.0391 13.4133 76.0791 13.1867 76.0791 12.94C76.0791 12.4333 75.9257 12.0333 75.6191 11.74C75.3191 11.44 74.8657 11.29 74.2591 11.29C73.6524 11.29 73.1957 11.44 72.8891 11.74C72.5891 12.0333 72.4391 12.4333 72.4391 12.94C72.4391 13.18 72.4757 13.4033 72.5491 13.61C72.6291 13.8167 72.7424 13.9967 72.8891 14.15C73.0424 14.2967 73.2324 14.4133 73.4591 14.5C73.6924 14.58 73.9591 14.62 74.2591 14.62ZM77.0491 20.46C77.0491 20.26 76.9891 20.0967 76.8691 19.97C76.7491 19.8433 76.5857 19.7467 76.3791 19.68C76.1724 19.6067 75.9291 19.5533 75.6491 19.52C75.3757 19.4867 75.0824 19.4633 74.7691 19.45C74.4624 19.43 74.1424 19.4133 73.8091 19.4C73.4824 19.3867 73.1624 19.36 72.8491 19.32C72.5757 19.4733 72.3524 19.6533 72.1791 19.86C72.0124 20.0667 71.9291 20.3067 71.9291 20.58C71.9291 20.76 71.9724 20.9267 72.0591 21.08C72.1524 21.24 72.2957 21.3767 72.4891 21.49C72.6891 21.6033 72.9457 21.69 73.2591 21.75C73.5724 21.8167 73.9557 21.85 74.4091 21.85C74.8691 21.85 75.2657 21.8133 75.5991 21.74C75.9324 21.6733 76.2057 21.5767 76.4191 21.45C76.6391 21.33 76.7991 21.1833 76.8991 21.01C76.9991 20.8433 77.0491 20.66 77.0491 20.46ZM79.5091 10.09V11.01C79.5091 11.3033 79.3324 11.4833 78.9791 11.55L78.0591 11.72C78.1991 12.0733 78.2691 12.46 78.2691 12.88C78.2691 13.3867 78.1657 13.8467 77.9591 14.26C77.7591 14.6667 77.4791 15.0133 77.1191 15.3C76.7591 15.5867 76.3324 15.81 75.8391 15.97C75.3524 16.1233 74.8257 16.2 74.2591 16.2C74.0591 16.2 73.8657 16.19 73.6791 16.17C73.4924 16.15 73.3091 16.1233 73.1291 16.09C72.8091 16.2833 72.6491 16.5 72.6491 16.74C72.6491 16.9467 72.7424 17.1 72.9291 17.2C73.1224 17.2933 73.3757 17.36 73.6891 17.4C74.0024 17.44 74.3591 17.4667 74.7591 17.48C75.1591 17.4867 75.5691 17.5067 75.9891 17.54C76.4091 17.5733 76.8191 17.6333 77.2191 17.72C77.6191 17.8 77.9757 17.93 78.2891 18.11C78.6024 18.29 78.8524 18.5367 79.0391 18.85C79.2324 19.1567 79.3291 19.5533 79.3291 20.04C79.3291 20.4933 79.2157 20.9333 78.9891 21.36C78.7691 21.7867 78.4457 22.1667 78.0191 22.5C77.5991 22.8333 77.0791 23.1 76.4591 23.3C75.8457 23.5067 75.1457 23.61 74.3591 23.61C73.5857 23.61 72.9124 23.5333 72.3391 23.38C71.7657 23.2333 71.2891 23.0333 70.9091 22.78C70.5291 22.5333 70.2457 22.2467 70.0591 21.92C69.8724 21.5933 69.7791 21.2533 69.7791 20.9C69.7791 20.42 69.9224 20.02 70.2091 19.7C70.5024 19.3733 70.9024 19.1133 71.4091 18.92C71.1357 18.78 70.9191 18.5933 70.7591 18.36C70.5991 18.1267 70.5191 17.82 70.5191 17.44C70.5191 17.2867 70.5457 17.13 70.5991 16.97C70.6591 16.8033 70.7424 16.64 70.8491 16.48C70.9624 16.32 71.1024 16.17 71.2691 16.03C71.4357 15.8833 71.6324 15.7533 71.8591 15.64C71.3391 15.36 70.9291 14.9867 70.6291 14.52C70.3357 14.0533 70.1891 13.5067 70.1891 12.88C70.1891 12.3733 70.2891 11.9167 70.4891 11.51C70.6957 11.0967 70.9791 10.7467 71.3391 10.46C71.7057 10.1667 72.1357 9.94333 72.6291 9.79C73.1291 9.63667 73.6724 9.56 74.2591 9.56C74.6991 9.56 75.1124 9.60667 75.4991 9.7C75.8857 9.78667 76.2391 9.91667 76.5591 10.09H79.5091ZM85.4397 9.58C86.1997 9.58 86.8897 9.70333 87.5097 9.95C88.1364 10.1967 88.6697 10.5467 89.1097 11C89.5564 11.4533 89.8997 12.0067 90.1397 12.66C90.3797 13.3133 90.4997 14.0433 90.4997 14.85C90.4997 15.6633 90.3797 16.3967 90.1397 17.05C89.8997 17.7033 89.5564 18.26 89.1097 18.72C88.6697 19.18 88.1364 19.5333 87.5097 19.78C86.8897 20.0267 86.1997 20.15 85.4397 20.15C84.673 20.15 83.9764 20.0267 83.3497 19.78C82.723 19.5333 82.1864 19.18 81.7397 18.72C81.2997 18.26 80.9564 17.7033 80.7097 17.05C80.4697 16.3967 80.3497 15.6633 80.3497 14.85C80.3497 14.0433 80.4697 13.3133 80.7097 12.66C80.9564 12.0067 81.2997 11.4533 81.7397 11C82.1864 10.5467 82.723 10.1967 83.3497 9.95C83.9764 9.70333 84.673 9.58 85.4397 9.58ZM85.4397 18.25C86.293 18.25 86.923 17.9633 87.3297 17.39C87.743 16.8167 87.9497 15.9767 87.9497 14.87C87.9497 13.7633 87.743 12.92 87.3297 12.34C86.923 11.76 86.293 11.47 85.4397 11.47C84.573 11.47 83.9297 11.7633 83.5097 12.35C83.0964 12.93 82.8897 13.77 82.8897 14.87C82.8897 15.97 83.0964 16.81 83.5097 17.39C83.9297 17.9633 84.573 18.25 85.4397 18.25ZM94.7141 11.52C95.0341 10.9067 95.4141 10.4267 95.8541 10.08C96.2941 9.72667 96.8141 9.55 97.4141 9.55C97.8874 9.55 98.2674 9.65333 98.5541 9.86L98.3941 11.71C98.3607 11.83 98.3107 11.9167 98.2441 11.97C98.1841 12.0167 98.1007 12.04 97.9941 12.04C97.8941 12.04 97.7441 12.0233 97.5441 11.99C97.3507 11.9567 97.1607 11.94 96.9741 11.94C96.7007 11.94 96.4574 11.98 96.2441 12.06C96.0307 12.14 95.8374 12.2567 95.6641 12.41C95.4974 12.5567 95.3474 12.7367 95.2141 12.95C95.0874 13.1633 94.9674 13.4067 94.8541 13.68V20H92.3841V9.74H93.8341C94.0874 9.74 94.2641 9.78667 94.3641 9.88C94.4641 9.96667 94.5307 10.1267 94.5641 10.36L94.7141 11.52ZM102.405 9.74V20H99.925V9.74H102.405ZM102.745 6.75C102.745 6.96333 102.702 7.16333 102.615 7.35C102.528 7.53667 102.412 7.7 102.265 7.84C102.125 7.98 101.958 8.09333 101.765 8.18C101.572 8.26 101.365 8.3 101.145 8.3C100.932 8.3 100.728 8.26 100.535 8.18C100.348 8.09333 100.185 7.98 100.045 7.84C99.905 7.7 99.7917 7.53667 99.705 7.35C99.625 7.16333 99.585 6.96333 99.585 6.75C99.585 6.53 99.625 6.32333 99.705 6.13C99.7917 5.93667 99.905 5.77 100.045 5.63C100.185 5.49 100.348 5.38 100.535 5.3C100.728 5.21333 100.932 5.17 101.145 5.17C101.365 5.17 101.572 5.21333 101.765 5.3C101.958 5.38 102.125 5.49 102.265 5.63C102.412 5.77 102.528 5.93667 102.615 6.13C102.702 6.32333 102.745 6.53 102.745 6.75ZM111.533 13.69C111.533 13.37 111.486 13.07 111.393 12.79C111.306 12.5033 111.173 12.2533 110.993 12.04C110.813 11.8267 110.583 11.66 110.303 11.54C110.03 11.4133 109.71 11.35 109.343 11.35C108.63 11.35 108.066 11.5533 107.653 11.96C107.246 12.3667 106.986 12.9433 106.873 13.69H111.533ZM106.823 15.18C106.863 15.7067 106.956 16.1633 107.103 16.55C107.25 16.93 107.443 17.2467 107.683 17.5C107.923 17.7467 108.206 17.9333 108.533 18.06C108.866 18.18 109.233 18.24 109.633 18.24C110.033 18.24 110.376 18.1933 110.663 18.1C110.956 18.0067 111.21 17.9033 111.423 17.79C111.643 17.6767 111.833 17.5733 111.993 17.48C112.16 17.3867 112.32 17.34 112.473 17.34C112.68 17.34 112.833 17.4167 112.933 17.57L113.643 18.47C113.37 18.79 113.063 19.06 112.723 19.28C112.383 19.4933 112.026 19.6667 111.653 19.8C111.286 19.9267 110.91 20.0167 110.523 20.07C110.143 20.1233 109.773 20.15 109.413 20.15C108.7 20.15 108.036 20.0333 107.423 19.8C106.81 19.56 106.276 19.21 105.823 18.75C105.37 18.2833 105.013 17.71 104.753 17.03C104.493 16.3433 104.363 15.55 104.363 14.65C104.363 13.95 104.476 13.2933 104.703 12.68C104.93 12.06 105.253 11.5233 105.673 11.07C106.1 10.61 106.616 10.2467 107.223 9.98C107.836 9.71333 108.526 9.58 109.293 9.58C109.94 9.58 110.536 9.68333 111.083 9.89C111.63 10.0967 112.1 10.4 112.493 10.8C112.886 11.1933 113.193 11.68 113.413 12.26C113.64 12.8333 113.753 13.49 113.753 14.23C113.753 14.6033 113.713 14.8567 113.633 14.99C113.553 15.1167 113.4 15.18 113.173 15.18H106.823ZM121.867 11.74C121.8 11.8467 121.73 11.9233 121.657 11.97C121.583 12.01 121.49 12.03 121.377 12.03C121.257 12.03 121.127 11.9967 120.987 11.93C120.853 11.8633 120.697 11.79 120.517 11.71C120.337 11.6233 120.13 11.5467 119.897 11.48C119.67 11.4133 119.4 11.38 119.087 11.38C118.6 11.38 118.217 11.4833 117.937 11.69C117.663 11.8967 117.527 12.1667 117.527 12.5C117.527 12.72 117.597 12.9067 117.737 13.06C117.883 13.2067 118.073 13.3367 118.307 13.45C118.547 13.5633 118.817 13.6667 119.117 13.76C119.417 13.8467 119.72 13.9433 120.027 14.05C120.34 14.1567 120.647 14.28 120.947 14.42C121.247 14.5533 121.513 14.7267 121.747 14.94C121.987 15.1467 122.177 15.3967 122.317 15.69C122.463 15.9833 122.537 16.3367 122.537 16.75C122.537 17.2433 122.447 17.7 122.267 18.12C122.093 18.5333 121.833 18.8933 121.487 19.2C121.14 19.5 120.71 19.7367 120.197 19.91C119.69 20.0767 119.103 20.16 118.437 20.16C118.083 20.16 117.737 20.1267 117.397 20.06C117.063 20 116.74 19.9133 116.427 19.8C116.12 19.6867 115.833 19.5533 115.567 19.4C115.307 19.2467 115.077 19.08 114.877 18.9L115.447 17.96C115.52 17.8467 115.607 17.76 115.707 17.7C115.807 17.64 115.933 17.61 116.087 17.61C116.24 17.61 116.383 17.6533 116.517 17.74C116.657 17.8267 116.817 17.92 116.997 18.02C117.177 18.12 117.387 18.2133 117.627 18.3C117.873 18.3867 118.183 18.43 118.557 18.43C118.85 18.43 119.1 18.3967 119.307 18.33C119.52 18.2567 119.693 18.1633 119.827 18.05C119.967 17.9367 120.067 17.8067 120.127 17.66C120.193 17.5067 120.227 17.35 120.227 17.19C120.227 16.95 120.153 16.7533 120.007 16.6C119.867 16.4467 119.677 16.3133 119.437 16.2C119.203 16.0867 118.933 15.9867 118.627 15.9C118.327 15.8067 118.017 15.7067 117.697 15.6C117.383 15.4933 117.073 15.37 116.767 15.23C116.467 15.0833 116.197 14.9 115.957 14.68C115.723 14.46 115.533 14.19 115.387 13.87C115.247 13.55 115.177 13.1633 115.177 12.71C115.177 12.29 115.26 11.89 115.427 11.51C115.593 11.13 115.837 10.8 116.157 10.52C116.483 10.2333 116.887 10.0067 117.367 9.84C117.853 9.66667 118.413 9.58 119.047 9.58C119.753 9.58 120.397 9.69667 120.977 9.93C121.557 10.1633 122.04 10.47 122.427 10.85L121.867 11.74Z" fill="white"/>
</svg>
